<svg id="Capa_1" enable-background="new 0 0 512 512" height="512" viewBox="0 0 512 512" width="512" xmlns="http://www.w3.org/2000/svg"><g><g><path d="m436 30v452c0 11.05-8.95 20-20 20h-320c-11.05 0-20-8.95-20-20v-452c0-11.05 8.95-20 20-20h320c11.05 0 20 8.95 20 20z" fill="#a0e5a5"/><path d="m356 342h40v120h-40z" fill="#ff7d95"/><g fill="#eefaff"><path d="m356 262h40v40h-40z"/><path d="m116 90h280v132h-280z"/><path d="m276 422h40v40h-40z"/><path d="m276 342h40v40h-40z"/><path d="m276 262h40v40h-40z"/><path d="m196 422h40v40h-40z"/><path d="m196 342h40v40h-40z"/><path d="m196 262h40v40h-40z"/><path d="m116 422h40v40h-40z"/><path d="m116 342h40v40h-40z"/><path d="m116 262h40v40h-40z"/></g></g><g><circle cx="396" cy="50" r="10"/><circle cx="356" cy="50" r="10"/><circle cx="316" cy="50" r="10"/><path d="m406 222v-132c0-5.523-4.477-10-10-10h-280c-5.523 0-10 4.477-10 10v132c0 5.523 4.477 10 10 10h280c5.523 0 10-4.477 10-10zm-20-10h-260v-112h260z"/><path d="m166 262c0-5.523-4.477-10-10-10h-40c-5.523 0-10 4.477-10 10v40c0 5.523 4.477 10 10 10h40c5.523 0 10-4.477 10-10zm-20 30h-20v-20h20z"/><path d="m196 312h40c5.523 0 10-4.477 10-10v-40c0-5.523-4.477-10-10-10h-40c-5.523 0-10 4.477-10 10v40c0 5.523 4.477 10 10 10zm10-40h20v20h-20z"/><path d="m326 262c0-5.523-4.477-10-10-10h-40c-5.523 0-10 4.477-10 10v40c0 5.523 4.477 10 10 10h40c5.523 0 10-4.477 10-10zm-20 30h-20v-20h20z"/><path d="m406 262c0-5.523-4.477-10-10-10h-40c-5.523 0-10 4.477-10 10v40c0 5.523 4.477 10 10 10h40c5.523 0 10-4.477 10-10zm-20 30h-20v-20h20z"/><path d="m166 342c0-5.523-4.477-10-10-10h-40c-5.523 0-10 4.477-10 10v40c0 5.523 4.477 10 10 10h40c5.523 0 10-4.477 10-10zm-20 30h-20v-20h20z"/><path d="m186 382c0 5.523 4.477 10 10 10h40c5.523 0 10-4.477 10-10v-40c0-5.523-4.477-10-10-10h-40c-5.523 0-10 4.477-10 10zm20-30h20v20h-20z"/><path d="m316 332h-40c-5.523 0-10 4.477-10 10v40c0 5.523 4.477 10 10 10h40c5.523 0 10-4.477 10-10v-40c0-5.523-4.477-10-10-10zm-10 40h-20v-20h20z"/><path d="m396 332h-40c-5.523 0-10 4.477-10 10v120c0 5.523 4.477 10 10 10h40c5.523 0 10-4.477 10-10v-120c0-5.523-4.477-10-10-10zm-10 120h-20v-100h20z"/><path d="m156 412h-40c-5.523 0-10 4.477-10 10v40c0 5.523 4.477 10 10 10h40c5.523 0 10-4.477 10-10v-40c0-5.523-4.477-10-10-10zm-10 40h-20v-20h20z"/><path d="m186 462c0 5.523 4.477 10 10 10h40c5.523 0 10-4.477 10-10v-40c0-5.523-4.477-10-10-10h-40c-5.523 0-10 4.477-10 10zm20-30h20v20h-20z"/><path d="m276 472h40c5.523 0 10-4.477 10-10v-40c0-5.523-4.477-10-10-10h-40c-5.523 0-10 4.477-10 10v40c0 5.523 4.477 10 10 10zm10-40h20v20h-20z"/><path d="m316 192h40c5.523 0 10-4.477 10-10s-4.477-10-10-10h-40c-5.523 0-10 4.477-10 10s4.477 10 10 10z"/><circle cx="256" cy="502" r="10"/><path d="m96 512h115c5.523 0 10-4.477 10-10s-4.477-10-10-10h-115c-5.514 0-10-4.486-10-10v-452c0-5.514 4.486-10 10-10h320c5.514 0 10 4.486 10 10v452c0 5.514-4.486 10-10 10h-115c-5.523 0-10 4.477-10 10s4.477 10 10 10h115c16.542 0 30-13.458 30-30v-452c0-16.542-13.458-30-30-30h-320c-16.542 0-30 13.458-30 30v452c0 16.542 13.458 30 30 30z"/></g></g></svg>