<svg id="Capa_1" enable-background="new 0 0 512 512" height="512" viewBox="0 0 512 512" width="512" xmlns="http://www.w3.org/2000/svg"><g><path d="m512 256c0 84.7-41.14 159.8-104.53 206.38-13.03 9.6-45.88 11.69-60.63 18.69-2.31 1.1-205.957-15.263-216.607-22.113-11.77-7.56-35.383-3.547-45.723-12.877-51.89-46.86-84.51-114.66-84.51-190.08 0-141.38 114.62-256 256-256s256 114.62 256 256z" fill="#78d090"/><g><path d="m358.73 490.55c-31.45 13.79-66.19 21.45-102.73 21.45-65.96 0-126.1-24.96-171.49-65.92 5.62-4.73 11.67-8.96 18.07-12.65 6.37-3.67 13.09-6.78 20.09-9.29 4.22-1.52 8.54-2.81 12.94-3.86.78-.19 1.57-.37 2.36-.54 1.03-.24 2.08-.45 3.12-.65 3.47-.68 7-1.2 10.57-1.57 1.03-.11 2.05-.21 3.09-.29 3.38-.28 6.8-.42 10.26-.42h81.59c4.52 0 8.97.24 13.35.7 3.57.37 7.09.9 10.57 1.56 1.05.2 2.09.42 3.12.65.34.07.68.14 1.02.22.45.12.91.21 1.35.33 4.41 1.06 8.72 2.35 12.93 3.86 7.01 2.51 13.73 5.63 20.1 9.3 15.43 8.9 28.79 20.96 39.18 35.33 5.26 6.97 8.64 14.43 10.51 21.79z" fill="#f6f9f9"/><path d="m184.42 446.734h42.753v42.753h-42.753z" fill="#40b4d3" transform="matrix(.707 .707 -.707 .707 391.281 -8.414)"/><path d="m227.94 510.48c-12.76-1.39-25.23-3.72-37.36-6.92l15.22-15.22z" fill="#40b4d3"/><g fill="#dae4ea"><path d="m205.8 468.11-45.62 25.35c-3.02-1.22-6.02-2.5-8.98-3.84l-14.52-72.04 32.93-14.4z"/><path d="m205.796 468.111 52.994 29.451 16.121-79.986-32.928-14.393"/><path d="m165.01 416.81c-23.02 0-40.23 26.09-47.29 54.66-11.77-7.56-22.87-16.06-33.21-25.39 5.62-4.73 11.67-8.96 18.07-12.65 10.2-5.87 21.3-10.34 33.03-13.15 1.81-.44 3.64-.84 5.48-1.19 3.47-.68 7-1.2 10.57-1.57 1.03-.11 2.05-.21 3.09-.29 3.38-.28 6.8-.42 10.26-.42z"/></g><path d="m250.515 368.538v54.869c0 20.088-13.245 37.067-31.489 42.707-4.176 1.296-8.627 1.997-13.23 1.997-24.691 0-44.703-20.012-44.703-44.703v-54.869h89.422z" fill="#efb29a"/><path d="m250.515 419.932v3.475c0 20.088-13.245 37.067-31.489 42.707-16.461-5.06-28.837-19.372-31.123-36.884 2.987.183 5.99.274 9.008.274 8.459 0 16.75-.671 24.829-1.997 9.952-1.6 19.569-4.161 28.775-7.575z" fill="#f9c5ac"/><g><path d="m82.349 278.153c0 20.497-14.973 37.492-34.579 40.646-2.143.347-4.347.528-6.596.528-22.745.001-41.174-18.428-41.174-41.174s18.429-41.175 41.175-41.175c2.249 0 4.453.181 6.596.528 19.606 3.155 34.578 20.151 34.578 40.647z" fill="#f9c5ac"/><path d="m82.349 278.153c0 20.497-14.973 37.492-34.579 40.646-3.562-12.95-5.464-26.579-5.464-40.646s1.902-27.696 5.464-40.646c19.607 3.154 34.579 20.15 34.579 40.646z" fill="#efb29a"/><circle cx="41.175" cy="278.153" fill="#efb29a" r="14.716"/><path d="m411.128 271.79c-.43 7-1.13 13.93-2.12 20.77-5.83 15.64-20.9 26.77-38.57 26.77-2.25 0-4.46-.18-6.6-.53-19.61-3.15-34.58-20.15-34.58-40.65 0-20.49 14.97-37.49 34.58-40.64 2.14-.35 4.35-.53 6.6-.53 20.58 0 37.62 15.09 40.69 34.81z" fill="#f9c5ac"/><g fill="#efb29a"><path d="m329.259 278.153c0 20.497 14.973 37.492 34.579 40.646 3.562-12.95 5.464-26.579 5.464-40.646s-1.902-27.696-5.464-40.646c-19.607 3.154-34.579 20.15-34.579 40.646z"/><circle cx="370.433" cy="278.153" r="14.716"/></g></g><path d="m360.505 256.511c0 76.985-56.241 140.847-129.873 152.705-8.078 1.326-16.369 1.997-24.829 1.997-85.444 0-154.701-69.257-154.701-154.701v-157.5h309.403z" fill="#f9c5ac"/><path d="m233.053 408.81c-.8.14-1.61.28-2.42.41-8.08 1.32-16.37 1.99-24.83 1.99-85.44 0-154.7-69.25-154.7-154.7v-157.5h54.55v157.5c-.001 76.14 54.979 139.41 127.4 152.3z" fill="#efb29a"/><path d="m360.505 238.188-6.536-97.847c-97.725 33.103-162.821 48.731-204.106 41.674 57.871-11.058 74.587-47.603 74.587-47.603s-37.928 24.502-78.977 32.656c-19.254 3.82-38.799-6.126-46.508-24.185-.056-.097-.097-.208-.139-.306 0 0 .923 95.61-47.725 95.61 0 0-65.49-215.076 38.001-184.515 0 0 29.936-27.491 74.624-43.119.167-.056.333-.111.514-.18.486-.181.986-.347 1.486-.5.528-.167 1.028-.333 1.5-.5 47.26-15.586 110.035-17.211 171.227 39.438 121.549 112.52 22.052 189.377 22.052 189.377z" fill="#2f373b"/><path d="m145.474 167.068c-19.254 3.82-38.799-6.126-46.508-24.185-.056-.097-.097-.208-.139-.306 0 0 .923 95.61-47.725 95.61 0 0-65.49-215.076 38.001-184.515 0 0 29.936-27.491 74.624-43.119-61.33 22.338-45.16 156.515-18.253 156.515z" fill="#181e21"/><path d="m205.804 337.93c-12.954 0-25.908-3.246-37.716-9.737-3.331-1.831-4.547-6.015-2.715-9.346 1.831-3.331 6.016-4.545 9.346-2.715 19.465 10.701 42.707 10.7 62.17 0 3.329-1.831 7.514-.616 9.346 2.715 1.831 3.331.616 7.515-2.715 9.346-11.808 6.492-24.762 9.737-37.716 9.737z" fill="#dd9f8a"/><path d="m223.353 291.694h-35.098c-4.181 0-7.57-3.389-7.57-7.57 0-4.181 3.389-7.57 7.57-7.57h35.098c4.181 0 7.57 3.389 7.57 7.57 0 4.18-3.389 7.57-7.57 7.57z" fill="#efb29a"/><g><path d="m231.149 249.161c0 17.165 13.915 31.08 31.08 31.08s31.08-13.915 31.08-31.08" fill="#efb29a"/><circle cx="262.229" cy="249.161" fill="#2f373b" r="22.287"/><circle cx="271.517" cy="245.228" fill="#fff" r="9.55"/><path d="m118.299 249.161c0 17.165 13.915 31.08 31.08 31.08s31.08-13.915 31.08-31.08" fill="#efb29a"/><circle cx="149.379" cy="249.161" fill="#2f373b" r="22.287"/><path d="m154.591 270.831c-1.67.41-3.42.62-5.21.62-12.31 0-22.29-9.98-22.29-22.29s9.98-22.29 22.29-22.29c1.79 0 3.54.21 5.21.62-9.8 2.34-17.07 11.16-17.07 21.67s7.27 19.33 17.07 21.67z" fill="#181e21"/><path d="m267.442 270.831c-1.67.41-3.42.62-5.21.62-12.31 0-22.29-9.98-22.29-22.29s9.98-22.29 22.29-22.29c1.79 0 3.54.21 5.21.62-9.8 2.34-17.07 11.16-17.07 21.67s7.27 19.33 17.07 21.67z" fill="#181e21"/><circle cx="158.667" cy="245.228" fill="#fff" r="9.55"/></g></g><path d="m364.557 390.206h26.416v67.838h-26.416z" fill="#d82e3d"/><circle cx="377.765" cy="312.392" fill="#dd636e" r="91.781"/><path d="m377.765 383.223c-39.056 0-70.831-31.775-70.831-70.831s31.775-70.831 70.831-70.831 70.831 31.775 70.831 70.831-31.775 70.831-70.831 70.831z" fill="#f6f9f9"/><g fill="#dd636e"><path d="m377.304 281.759c-3.038 0-5.5 2.462-5.5 5.5v47.279c0 3.038 2.462 5.5 5.5 5.5s5.5-2.462 5.5-5.5v-47.279c0-3.038-2.463-5.5-5.5-5.5z"/><path d="m414.771 283.157h-12.994c-1.46 0-2.861.581-3.893 1.615s-1.61 2.435-1.607 3.896c0 0 .033 17.648.033 22.879 0 6.378.06 23.011.06 23.011.005 1.459.59 2.856 1.625 3.884 1.03 1.023 2.423 1.597 3.875 1.597h.021c.393-.001 9.656-.037 13.357-.102 13.646-.239 23.551-12.157 23.551-28.339 0-17.011-9.656-28.441-24.028-28.441zm.285 45.781c-1.765.031-4.92.055-7.704.073-.018-5.426-.041-13.464-.041-17.463 0-3.342-.014-11.746-.023-17.39h7.484c9.605 0 13.028 9.009 13.028 17.44-.001 11.824-6.401 17.229-12.744 17.34z"/><path d="m355.332 307.355c1.796-2.628 2.851-5.801 2.851-9.217 0-9.031-7.348-16.379-16.379-16.379h-13.734c-3.038 0-5.5 2.462-5.5 5.5v21.771.035 25.473c0 1.463.583 2.865 1.62 3.898 1.031 1.026 2.426 1.602 3.88 1.602h.024s12.627-.056 16.107-.056c10.05 0 18.226-8.176 18.226-18.226.001-5.858-2.788-11.064-7.095-14.401zm-13.528-14.596c2.966 0 5.379 2.413 5.379 5.379s-2.413 5.379-5.379 5.379c-1.015 0-2.934.006-5.02.013h-3.214v-10.771zm2.398 36.223c-1.95 0-6.763.018-10.632.033v-14.473c1.053-.004 2.158-.008 3.22-.012h7.412c3.984 0 7.226 3.242 7.226 7.226s-3.241 7.226-7.226 7.226z"/></g><path d="m407.47 462.38c-15.07 11.1-31.4 20.57-48.74 28.17-2.95 1.29-5.93 2.53-8.94 3.71-1.89-4-2.95-8.47-2.95-13.19v-10.06c0-17.08 13.85-30.92 30.93-30.92 14.09 0 25.97 9.41 29.7 22.29z" fill="#f9c5ac"/><path d="m365.07 471.01v10.06c0 2.15.22 4.26.64 6.29-2.31 1.1-4.63 2.16-6.98 3.19-2.95 1.29-5.93 2.53-8.94 3.71-1.89-4-2.95-8.47-2.95-13.19v-10.06c0-17.08 13.85-30.92 30.93-30.92 3.17 0 6.23.48 9.11 1.36-12.63 3.89-21.81 15.65-21.81 29.56z" fill="#efb29a"/></g></svg>