<svg id="Capa_1" enable-background="new 0 0 512 512" height="512" viewBox="0 0 512 512" width="512" xmlns="http://www.w3.org/2000/svg"><g><path d="m84.519 446.07c-51.903-46.848-84.519-114.651-84.519-190.07 0-141.38 114.62-256 256-256s256 114.62 256 256c0 84.702-41.139 159.795-104.522 206.391l-79.367 14.896" fill="#dd636e"/><g><path d="m358.73 490.55c-31.45 13.79-66.19 21.45-102.73 21.45-65.96 0-126.1-24.96-171.49-65.92 5.62-4.73 11.67-8.96 18.07-12.65 6.37-3.67 13.09-6.78 20.09-9.29 4.22-1.52 8.54-2.81 12.94-3.86.78-.19 1.57-.37 2.36-.54 1.03-.24 2.08-.45 3.12-.65 3.47-.68 7-1.2 10.57-1.57 1.03-.11 2.05-.21 3.09-.29 3.38-.28 6.8-.42 10.26-.42h81.59c4.52 0 8.97.24 13.35.7 3.57.37 7.09.9 10.57 1.56 1.05.2 2.09.42 3.12.65.34.07.68.14 1.02.22.45.12.91.21 1.35.33 4.41 1.06 8.72 2.35 12.93 3.86 7.01 2.51 13.73 5.63 20.1 9.3 15.43 8.9 28.79 20.96 39.18 35.33 5.26 6.97 8.64 14.43 10.51 21.79z" fill="#2f373b"/><path d="m165.01 416.81c-23.02 0-40.23 26.09-47.29 54.66-11.77-7.56-22.87-16.06-33.21-25.39 5.62-4.73 11.67-8.96 18.07-12.65 10.2-5.87 21.3-10.34 33.03-13.15 1.81-.44 3.64-.84 5.48-1.19 3.47-.68 7-1.2 10.57-1.57 1.03-.11 2.05-.21 3.09-.29 3.38-.28 6.8-.42 10.26-.42z" fill="#181e21"/><path d="m268.61 438.56-20.04 73.33c-4.25-.11-8.47-.34-12.66-.66-1.6-.13-3.2-.27-4.8-.43-4.18-.4-8.34-.91-12.46-1.51-2.78-.41-5.55-.86-8.3-1.36-6.61-1.18-13.12-2.62-19.54-4.31-.94-.25-1.87-.5-2.81-.76-10.92-3-21.55-6.71-31.83-11.07l-13.17-53.23z" fill="#dae4ea"/><path d="m212.34 491.61 18.77 19.19c-4.18-.4-8.34-.91-12.46-1.51-2.78-.41-5.55-.86-8.3-1.36-6.61-1.18-13.12-2.62-19.54-4.31-.94-.25-1.87-.5-2.81-.76l11.25-11.25-23.5-23.5 29.56-29.55.49-.49.49.49 29.55 29.55z" fill="#dd636e"/><path d="m205.797 468.111-42.277 23.496c-5.303 2.947-11.94-.116-13.139-6.063l-12.27-60.88c-.834-4.136 1.33-8.293 5.196-9.982l26.304-11.498" fill="#f6f9f9"/><path d="m205.797 468.111 42.277 23.496c5.303 2.947 11.94-.116 13.139-6.063l12.27-60.88c.834-4.136-1.33-8.293-5.196-9.982l-26.304-11.498" fill="#f6f9f9"/><path d="m250.516 368.538v54.869c0 20.088-13.245 37.067-31.489 42.707-4.176 1.296-8.627 1.997-13.23 1.997-24.691 0-44.703-20.012-44.703-44.703v-54.869h89.422z" fill="#efb29a"/><path d="m250.516 419.932v3.475c0 20.088-13.245 37.067-31.489 42.707-16.461-5.06-28.837-19.372-31.123-36.884 2.987.183 5.99.274 9.008.274 8.459 0 16.75-.671 24.829-1.997 9.952-1.6 19.569-4.161 28.775-7.575z" fill="#f9c5ac"/><g><path d="m82.35 278.153c0 20.497-14.973 37.492-34.579 40.646-2.143.347-4.347.528-6.596.528-22.746 0-41.175-18.429-41.175-41.175s18.429-41.175 41.175-41.175c2.249 0 4.453.181 6.596.528 19.606 3.156 34.579 20.152 34.579 40.648z" fill="#f9c5ac"/><path d="m82.35 278.153c0 20.497-14.973 37.492-34.579 40.646-3.562-12.95-5.464-26.579-5.464-40.646s1.902-27.696 5.464-40.646c19.606 3.154 34.579 20.15 34.579 40.646z" fill="#efb29a"/><circle cx="41.175" cy="278.153" fill="#efb29a" r="14.716"/><path d="m329.259 278.153c0 20.497 14.973 37.492 34.579 40.646 2.143.347 4.347.528 6.596.528 22.746 0 41.175-18.429 41.175-41.175s-18.429-41.175-41.175-41.175c-2.249 0-4.453.181-6.596.528-19.606 3.156-34.579 20.152-34.579 40.648z" fill="#f9c5ac"/><g fill="#efb29a"><path d="m329.259 278.153c0 20.497 14.973 37.492 34.579 40.646 3.562-12.95 5.464-26.579 5.464-40.646s-1.902-27.696-5.464-40.646c-19.606 3.154-34.579 20.15-34.579 40.646z"/><circle cx="370.434" cy="278.153" r="14.716"/></g></g><path d="m360.506 256.511c0 76.985-56.241 140.847-129.873 152.705-8.078 1.326-16.369 1.997-24.828 1.997-85.444 0-154.701-69.257-154.701-154.701l18.29-157.5h278.004z" fill="#f9c5ac"/><path d="m233.053 408.81c-.8.14-1.61.28-2.42.41-8.08 1.32-16.37 1.99-24.83 1.99-85.44 0-154.7-69.25-154.7-154.7v-157.5h54.55v157.5c0 76.14 54.98 139.41 127.4 152.3z" fill="#efb29a"/><path d="m205.805 337.93c-12.954 0-25.908-3.246-37.716-9.737-3.331-1.831-4.546-6.015-2.715-9.346s6.016-4.545 9.346-2.715c19.465 10.701 42.707 10.7 62.17 0 3.329-1.831 7.514-.616 9.346 2.715 1.831 3.331.616 7.515-2.715 9.346-11.808 6.492-24.762 9.737-37.716 9.737z" fill="#dd9f8a"/><path d="m223.354 291.694h-35.098c-4.181 0-7.57-3.389-7.57-7.57 0-4.181 3.389-7.57 7.57-7.57h35.098c4.181 0 7.57 3.389 7.57 7.57 0 4.18-3.389 7.57-7.57 7.57z" fill="#efb29a"/><g><path d="m231.15 249.161c0 17.165 13.915 31.08 31.08 31.08s31.08-13.915 31.08-31.08" fill="#efb29a"/><circle cx="262.23" cy="249.161" fill="#2f373b" r="22.287"/><circle cx="271.518" cy="245.228" fill="#fff" r="9.55"/><path d="m118.3 249.161c0 17.165 13.915 31.08 31.08 31.08s31.08-13.915 31.08-31.08" fill="#efb29a"/><circle cx="149.38" cy="249.161" fill="#2f373b" r="22.287"/><path d="m154.592 270.831c-1.67.41-3.42.62-5.21.62-12.31 0-22.29-9.98-22.29-22.29s9.98-22.29 22.29-22.29c1.79 0 3.54.21 5.21.62-9.8 2.34-17.07 11.16-17.07 21.67s7.27 19.33 17.07 21.67z" fill="#181e21"/><path d="m267.442 270.831c-1.67.41-3.42.62-5.21.62-12.31 0-22.29-9.98-22.29-22.29s9.98-22.29 22.29-22.29c1.79 0 3.54.21 5.21.62-9.8 2.34-17.07 11.16-17.07 21.67s7.27 19.33 17.07 21.67z" fill="#181e21"/><circle cx="158.668" cy="245.228" fill="#fff" r="9.55"/></g><path d="m205.805 307.486s-27.491-20.746-55.152-10.373c-14.998 5.624-25.389 18.872-35.636 29.823-6.928 7.404-1.457 19.455 8.677 19.12 28.059-.929 64.671-8.442 82.111-38.57z" fill="#2f373b"/><path d="m205.805 307.486s27.491-20.746 55.152-10.373c14.998 5.624 25.389 18.872 35.636 29.823 6.928 7.404 1.457 19.455-8.677 19.12-28.059-.929-64.671-8.442-82.111-38.57z" fill="#2f373b"/><g fill="#181e21"><g><path d="m279.84 458.87c-1.37 3.25.52 6.96 3.96 7.76l4.74 1.1c4.04.95 5.75 5.75 3.21 9.03l-26.9 35.09c-2.94.1-5.89.15-8.85.15-6.76 0-13.46-.26-20.09-.77l25.58-103.36c.63-3.49 4.27-5.56 7.6-4.32l23.86 8.92c3.03 1.13 4.51 4.56 3.25 7.55z"/><path d="m166.01 495.72c-3.31-1.24-6.59-2.55-9.84-3.93-13.05-5.53-25.55-12.12-37.39-19.65.42-2.06 1.97-3.87 4.29-4.41l4.74-1.1c3.44-.8 5.33-4.51 3.96-7.76l-16.36-38.85c-1.26-2.99.22-6.42 3.25-7.55l23.86-8.92c3.33-1.24 6.97.83 7.6 4.32z"/></g><path d="m122.506 29.264c20.306 0 36.767 16.461 36.767 36.767v29.483c0 23.907-19.38 43.287-43.287 43.287h-64.883v-38.134c0-39.435 31.969-71.403 71.403-71.403z"/><path d="m78.134 270.487h-27.031v-131.686l30.356-15.297 12.637 15.297z"/><path d="m333.476 270.487h27.03v-199.524l-44.036 59.224z"/></g><path d="m400.033 0h-191.374c-27.275 0-49.386 22.111-49.386 49.386v48.072c0 22.833 18.51 41.343 41.343 41.343h86.623c62.294 0 112.794-50.499 112.794-112.794z" fill="#2f373b"/><path d="m245.514 138.8h-44.89c-22.84 0-41.35-18.51-41.35-41.34v-48.07c0-27.28 22.11-49.39 49.39-49.39h44.89c-27.27 0-49.38 22.11-49.38 49.39v48.07c0 22.83 18.51 41.34 41.34 41.34z" fill="#181e21"/></g><g><path d="m377.581 465.094c-9.433 0-16.931 12.301-16.411 2.882l3.463-62.533.503-9.068.475-8.557.503-9.065.431-7.81 11.771-12.791 10.301 12.791.431 7.81.503 9.065.473 8.559.503 9.065 3.463 62.536c.522 9.417-6.977-2.884-16.409-2.884z" fill="#d9723e"/><path d="m361.173 467.976 5.371-97.038 11.036-11.985-3.787 11.985-1.844 97.038c-.181 9.418-11.296 9.418-10.776 0z" fill="#bd5423"/><path d="m390.526 405.442c-.08.003-.163.003-.246.003h-25.399c-.083 0-.166 0-.249-.003l.503-9.068.475-8.557h23.94l.473 8.559z" fill="#bd5423"/><path d="m356.068 392.22c0-4.867 3.946-8.813 8.813-8.813h25.398c4.867 0 8.813 3.946 8.813 8.813 0 4.867-3.946 8.813-8.813 8.813h-25.398c-4.867 0-8.813-3.945-8.813-8.813z" fill="#d9723e"/><path d="m377.317 401.032h-12.437c-4.867 0-8.812-3.945-8.812-8.812s3.945-8.812 8.812-8.812h12.437c-4.867 0-8.812 3.945-8.812 8.812s3.945 8.812 8.812 8.812z" fill="#bd5423"/><ellipse cx="377.764" cy="339.74" fill="#f4dd45" rx="33.534" ry="43.152"/><path d="m403.054 351.913c-.304 6.011-.829 12.025-1.578 18.036-15.809 3.256-31.615 3.256-47.424 0-.746-6.011-1.274-12.025-1.578-18.036 16.862.973 33.719.973 50.58 0z" fill="#e7a52e"/><g><path d="m339.653 368.667c-7.598-5.519-12.867 0-12.867 0v-57.475s5.269 5.519 12.867 0" fill="#bd5423"/><path d="m350.283 376.333h-7.971c-3.525 0-6.382-2.858-6.382-6.382v-60.422c0-3.525 2.858-6.382 6.382-6.382h7.971c3.525 0 6.382 2.858 6.382 6.382v60.422c.001 3.524-2.857 6.382-6.382 6.382z" fill="#d9723e"/><path d="m319.583 376.333h-4.834c-4.763 0-8.854-3.373-9.778-8.046-3.728-18.849-3.728-38.246 0-57.095.924-4.673 5.015-8.046 9.778-8.046h4.834c.149 0 .297.003.445.01 5.258.233 9.333 4.71 9.333 9.973v53.221c0 5.263-4.075 9.741-9.333 9.973-.148.007-.296.01-.445.01z" fill="#d9723e"/><g fill="#bd5423"><path d="m356.667 347.892v22.058c0 3.527-2.858 6.384-6.384 6.384h-7.971c-3.524 0-6.382-2.858-6.382-6.384v-22.058c0 3.527 2.858 6.384 6.382 6.384h7.971c3.527 0 6.384-2.857 6.384-6.384z"/><path d="m329.361 350.775v15.577c0 5.262-4.074 9.74-9.333 9.972-.146.006-.296.011-.445.011h-4.834c-4.762 0-8.852-3.375-9.778-8.048-1.573-7.962-2.482-16.022-2.722-24.097.149.68.304 1.36.467 2.04 1.119 4.674 6.064 8.048 11.821 8.048h5.845c.18 0 .359-.003.536-.011 3.402-.126 6.395-1.466 8.443-3.492z"/><path d="m415.876 368.667c7.598-5.519 12.867 0 12.867 0v-57.475s-5.269 5.519-12.867 0"/></g><path d="m405.246 376.333h7.971c3.525 0 6.382-2.858 6.382-6.382v-60.422c0-3.525-2.858-6.382-6.382-6.382h-7.971c-3.525 0-6.382 2.858-6.382 6.382v60.422c-.001 3.524 2.857 6.382 6.382 6.382z" fill="#d9723e"/><path d="m435.945 376.333h4.834c4.763 0 8.854-3.373 9.778-8.046 3.728-18.849 3.728-38.246 0-57.095-.924-4.673-5.015-8.046-9.778-8.046h-4.834c-.149 0-.297.003-.445.01-5.258.233-9.333 4.71-9.333 9.973v53.221c0 5.263 4.075 9.741 9.333 9.973.148.007.297.01.445.01z" fill="#d9723e"/><path d="m398.861 347.892v22.058c0 3.527 2.858 6.384 6.384 6.384h7.971c3.524 0 6.382-2.858 6.382-6.384v-22.058c0 3.527-2.858 6.384-6.382 6.384h-7.971c-3.526 0-6.384-2.857-6.384-6.384z" fill="#bd5423"/><path d="m426.168 350.775v15.577c0 5.262 4.074 9.74 9.333 9.972.146.006.296.011.445.011h4.834c4.762 0 8.852-3.375 9.778-8.048 1.573-7.962 2.482-16.022 2.722-24.097-.149.68-.304 1.36-.467 2.04-1.119 4.674-6.064 8.048-11.821 8.048h-5.845c-.18 0-.359-.003-.536-.011-3.402-.126-6.395-1.466-8.443-3.492z" fill="#bd5423"/></g></g><path d="m407.47 462.38c-15.07 11.1-31.4 20.57-48.74 28.17-2.95 1.29-5.93 2.53-8.94 3.71-1.89-4-2.95-8.47-2.95-13.19v-10.06c0-17.08 13.85-30.92 30.93-30.92 14.09 0 25.97 9.41 29.7 22.29z" fill="#f9c5ac"/><path d="m365.07 471.01v10.06c0 2.15.22 4.26.64 6.29-2.31 1.1-4.63 2.16-6.98 3.19-2.95 1.29-5.93 2.53-8.94 3.71-1.89-4-2.95-8.47-2.95-13.19v-10.06c0-17.08 13.85-30.92 30.93-30.92 3.17 0 6.23.48 9.11 1.36-12.63 3.89-21.81 15.65-21.81 29.56z" fill="#efb29a"/></g></svg>